<svg xmlns="http://www.w3.org/2000/svg" viewBox="0 0 64 64" width="64" height="64">
  <defs>
    <linearGradient id="a" x1="0" x2="1" y1="0" y2="1">
      <stop offset="0%" stop-color="#06b6d4"/>
      <stop offset="100%" stop-color="#0ea5a4"/>
    </linearGradient>
  </defs>
  <!-- two hands handshake -->
  <path d="M8 36c4-6 14-14 26-6 8 6 14 2 20-4" fill="#f3f4f6" stroke="#0f172a" stroke-width="1"/>
  <path d="M18 24c6-4 12-4 20 2" fill="#fff" stroke="#0f172a" stroke-width="1"/>
  <path d="M12 38c4-6 12-10 18-4" fill="#f59e0b" stroke="#92400e" stroke-width="1"/>
  <path d="M44 34c2 2 6 0 8-2 2-2 4-6 2-8-2-2-6-2-8 0-2 2-4 4-6 6" fill="#f97316" stroke="#7c2d12" stroke-width="1"/>
  <!-- circle background -->
  <circle cx="32" cy="32" r="30" fill="url(#a)" opacity="0.12"/>
</svg>
